<?xml version="1.0" encoding="UTF-8"?>
<!DOCTYPE svg PUBLIC "-//W3C//DTD SVG 1.1//EN" "http://www.w3.org/Graphics/SVG/1.1/DTD/svg11.dtd">
<svg xmlns="http://www.w3.org/2000/svg" version="1.1" width="512px" height="512px" style="shape-rendering:geometricPrecision; text-rendering:geometricPrecision; image-rendering:optimizeQuality; fill-rule:evenodd; clip-rule:evenodd" xmlns:xlink="http://www.w3.org/1999/xlink">
<g><path style="opacity:0.968" fill="#FFFFFF" d="M 249.5,-0.5 C 253.5,-0.5 257.5,-0.5 261.5,-0.5C 265.479,1.31481 268.312,4.31481 270,8.5C 270.667,23.1667 270.667,37.8333 270,52.5C 263.961,62.3856 255.794,64.5523 245.5,59C 243.877,56.9205 242.377,54.7538 241,52.5C 240.333,37.8333 240.333,23.1667 241,8.5C 242.688,4.31481 245.521,1.31481 249.5,-0.5 Z"/></g>
<g><path style="opacity:0.933" fill="#FFFFFF" d="M 52.5,40.5 C 57.5483,40.127 62.215,41.2936 66.5,44C 74.3333,51.8333 82.1667,59.6667 90,67.5C 96.431,76.4128 95.5976,84.5795 87.5,92C 81.8146,95.228 76.1479,95.228 70.5,92C 61.3631,83.8641 52.5298,75.3641 44,66.5C 37.7757,54.6737 40.6091,46.007 52.5,40.5 Z"/></g>
<g><path style="opacity:0.933" fill="#FFFFFF" d="M 451.5,40.5 C 466.178,40.8709 472.011,48.2042 469,62.5C 461.235,72.2681 452.735,81.4348 443.5,90C 433.478,96.8577 424.978,95.3577 418,85.5C 415.72,79.5068 416.387,73.8402 420,68.5C 428.167,60.3333 436.333,52.1667 444.5,44C 446.925,42.7874 449.259,41.6207 451.5,40.5 Z"/></g>
<g><path style="opacity:0.965" fill="#FFFFFF" d="M 511.5,249.5 C 511.5,253.5 511.5,257.5 511.5,261.5C 467.604,344.821 398.937,394.655 305.5,411C 233.509,422.28 165.843,409.946 102.5,374C 57.1254,346.465 22.7921,308.965 -0.5,261.5C -0.5,257.5 -0.5,253.5 -0.5,249.5C 35.7978,178.142 92.4645,130.976 169.5,108C 253.193,85.2536 332.86,94.9203 408.5,137C 453.875,164.535 488.208,202.035 511.5,249.5 Z M 239.5,127.5 C 286.222,123.561 325.056,138.894 356,173.5C 385.211,213.777 391.545,257.443 375,304.5C 351.446,355.212 311.613,381.878 255.5,384.5C 197.966,381.765 157.799,354.098 135,301.5C 119.802,255.357 126.469,212.691 155,173.5C 177.398,147.608 205.565,132.275 239.5,127.5 Z M 125.5,159.5 C 126.525,159.897 126.692,160.563 126,161.5C 101.475,195.933 91.8081,234.266 97,276.5C 100.834,304.043 110.501,329.043 126,351.5C 86.5426,327.594 55.3759,295.594 32.5,255.5C 54.9758,215.191 85.9758,183.191 125.5,159.5 Z M 384.5,159.5 C 424.786,182.741 456.119,214.741 478.5,255.5C 455.624,295.594 424.457,327.594 385,351.5C 414.343,308.076 422.343,260.743 409,209.5C 403.719,191.274 395.552,174.607 384.5,159.5 Z M 254.5,222.5 C 275.248,224.082 286.582,235.248 288.5,256C 285.603,275.064 274.603,285.897 255.5,288.5C 236.397,285.897 225.397,275.064 222.5,256C 224.248,236.089 234.915,224.922 254.5,222.5 Z"/></g>
<g><path style="opacity:0.96" fill="#FFFFFF" d="M 250.5,191.5 C 291.658,192.659 314.658,213.659 319.5,254.5C 317.909,289.226 300.242,310.392 266.5,318C 221.178,320.845 196.178,299.678 191.5,254.5C 195.092,218.246 214.759,197.246 250.5,191.5 Z M 254.5,222.5 C 234.915,224.922 224.248,236.089 222.5,256C 225.397,275.064 236.397,285.897 255.5,288.5C 274.603,285.897 285.603,275.064 288.5,256C 286.582,235.248 275.248,224.082 254.5,222.5 Z"/></g>
<g><path style="opacity:0.933" fill="#FFFFFF" d="M 75.5,416.5 C 91.5382,417.359 97.0382,425.359 92,440.5C 83.8641,449.637 75.3641,458.47 66.5,467C 54.795,473.321 46.295,470.488 41,458.5C 40.1234,453.456 41.1234,448.789 44,444.5C 52.1667,436.333 60.3333,428.167 68.5,420C 70.9252,418.787 73.2585,417.621 75.5,416.5 Z"/></g>
<g><path style="opacity:0.933" fill="#FFFFFF" d="M 429.5,416.5 C 434.725,416.297 439.392,417.797 443.5,421C 451.333,428.833 459.167,436.667 467,444.5C 473.747,458.287 469.747,466.954 455,470.5C 451.237,470.135 447.737,468.968 444.5,467C 435.636,458.47 427.136,449.637 419,440.5C 414.107,428.676 417.607,420.676 429.5,416.5 Z"/></g>
<g><path style="opacity:0.967" fill="#FFFFFF" d="M 261.5,511.5 C 257.5,511.5 253.5,511.5 249.5,511.5C 245.521,509.685 242.688,506.685 241,502.5C 240.333,487.833 240.333,473.167 241,458.5C 247.039,448.614 255.206,446.448 265.5,452C 267.123,454.08 268.623,456.246 270,458.5C 270.667,473.167 270.667,487.833 270,502.5C 268.312,506.685 265.479,509.685 261.5,511.5 Z"/></g>
</svg>
